
<svg width="48" height="32" viewBox="0 0 48 32" fill="none" xmlns="http://www.w3.org/2000/svg">
  <rect width="48" height="32" rx="4" fill="#F9F9F9"/>
  <path d="M30 21H18V11H30V21Z" fill="#EDEDED"/>
  <path d="M19.5 16C19.5 13.5 20.8 11.3 22.7 10C21.1 8.7 19.1 8 17 8C11.9 8 8 11.8 8 16C8 20.2 11.9 24 17 24C19.1 24 21.1 23.3 22.7 22C20.8 20.7 19.5 18.5 19.5 16Z" fill="#D02027"/>
  <path d="M40 16C40 20.2 36.1 24 31 24C28.9 24 26.9 23.3 25.3 22C27.2 20.7 28.5 18.5 28.5 16C28.5 13.5 27.2 11.3 25.3 10C26.9 8.7 28.9 8 31 8C36.1 8 40 11.8 40 16Z" fill="#DB7E27"/>
  <path d="M25.3 10C27.2 11.3 28.5 13.5 28.5 16C28.5 18.5 27.2 20.7 25.3 22C23.4 20.7 22.1 18.5 22.1 16C22.1 13.5 23.4 11.3 25.3 10Z" fill="#DE372B"/>
</svg>
