
<svg width="48" height="32" viewBox="0 0 48 32" fill="none" xmlns="http://www.w3.org/2000/svg">
  <rect width="48" height="32" rx="4" fill="#F9F9F9"/>
  <path d="M40 16.2V17.8H37.9L37.3 16.7L36.7 17.8H28.1V16.9C28.1 16.9 27.8 17 27.3 17C26.8 17 26.4 16.5 26.4 15.9C26.4 15.4 26.7 14.9 27.3 14.9C27.8 14.9 28.1 15 28.1 15V14.2H30.5L31.1 15.3L31.7 14.2H40V15.4L41 14.2H43.8L45 15.4V14.2H48V19.8H45V18.4L43.9 19.8H41.1L40 18.5V19.8H35.6L35 18.7H34.1L33.6 19.8H28.1V19L27.8 19.8H26.6L26.3 19C26 19.6 25.2 19.9 24.1 19.9C23.5 19.9 22.8 19.8 22.8 19.8V20H18.8L18.2 18.9L17.6 20H14.6V12.2H17.7L18.3 13.3L18.9 12.2H24.6C25.5 12.2 26.3 12.5 26.3 13.4C26.3 14.3 25.5 14.6 24.6 14.6H22.8V15.3C22.8 15.3 23.4 15.2 24 15.2C25.2 15.2 26 15.5 26.3 16.2L27 14.2H29.9L30.5 15.3L31.1 14.2H34.8L35 14.7H35.9L36.2 14.2H40ZM21.1 17.3H20L22.5 13.5V13.3H19.3L18.5 14.5L17.7 13.3H14.5V18.9H17.7L18.5 17.7L19.3 18.9H20.6L21.1 18.1V17.3ZM22.8 17.9H23.9C24.4 17.9 24.9 17.6 24.9 17.1C24.9 16.6 24.5 16.3 23.9 16.3H22.8V17.9ZM33.9 18.1H36.6L35.3 15.7L33.9 18.1ZM37.6 15.9L39 18.1H41.6L40.4 16L41.7 14.2H39.1L37.6 15.9ZM22.8 13.9H23.8C24.3 13.9 24.7 13.6 24.7 13.2C24.7 12.8 24.3 12.5 23.8 12.5H22.8V13.9ZM31.6 17.8L30.3 15.6L28.9 17.8H31.6Z" fill="#0061A8"/>
</svg>
