
<svg width="48" height="32" viewBox="0 0 48 32" fill="none" xmlns="http://www.w3.org/2000/svg">
  <rect width="48" height="32" rx="4" fill="#F9F9F9"/>
  <path d="M18.5 21.5H14.8L17.2 10.5H20.9L18.5 21.5Z" fill="#2A2A6C"/>
  <path d="M29.4 10.7C28.6 10.4 27.3 10 25.8 10C22.4 10 20 11.8 20 14.3C20 16.3 21.8 17.4 23.1 18.1C24.4 18.8 24.9 19.2 24.9 19.8C24.9 20.7 23.8 21.1 22.8 21.1C21.4 21.1 20.6 20.9 19.4 20.4L18.9 20.2L18.4 23.3C19.3 23.7 20.9 24 22.5 24C26.1 24 28.5 22.2 28.5 19.5C28.5 17.9 27.7 16.7 25.7 15.6C24.5 14.9 23.7 14.4 23.7 13.8C23.7 13.2 24.4 12.7 25.9 12.7C27.1 12.7 28 12.9 28.7 13.2L29.1 13.3L29.7 10.3L29.4 10.7Z" fill="#2A2A6C"/>
  <path d="M34.9 10.5H32.1C31.3 10.5 30.7 10.8 30.3 11.7L25.7 21.5H29.3L30 19.8L33.8 19.8L34.1 21.5H37.3L34.9 10.5ZM30.9 17.5C31.1 17 32.1 14.5 32.1 14.5C32.1 14.5 32.4 13.7 32.6 13.2L32.8 14.4C32.8 14.4 33.4 17.1 33.5 17.6L30.9 17.6L30.9 17.5Z" fill="#2A2A6C"/>
  <path d="M13.5 10.5L10.1 18L9.8 16.6C9.2 14.5 7.1 12.3 4.8 11.1L8 21.5H11.6L17.2 10.5H13.5Z" fill="#2A2A6C"/>
  <path d="M7.8 10.5H2L1.9 10.8C6.1 11.9 8.9 14.1 10.1 16.6L8.9 11.7C8.6 10.8 8.2 10.5 7.8 10.5Z" fill="#E48F15"/>
</svg>
