
<svg width="48" height="32" viewBox="0 0 48 32" fill="none" xmlns="http://www.w3.org/2000/svg">
  <rect width="48" height="32" rx="4" fill="#F9F9F9"/>
  <path d="M34.9 10.2H30.6C30.2 10.2 29.9 10.4 29.8 10.8L28 19.7C28 19.9 28.2 20.1 28.4 20.1H30.5C30.9 20.1 31.2 19.9 31.3 19.5L31.7 17.1C31.8 16.7 32.1 16.5 32.5 16.5H33.9C36.5 16.5 38 15.1 38.4 12.7C38.5 11.7 38.3 10.9 37.8 10.3C37.2 10.1 36.1 10.2 34.9 10.2ZM35.3 12.9C35.1 14.3 34 14.3 33 14.3H32.4L32.8 12C32.8 11.8 33 11.7 33.2 11.7H33.5C34.2 11.7 34.8 11.7 35.1 12.1C35.4 12.3 35.4 12.5 35.3 12.9Z" fill="#28356A"/>
  <path d="M18.9 10.2H14.6C14.2 10.2 13.9 10.4 13.8 10.8L12 19.7C12 19.9 12.2 20.1 12.4 20.1H14.5C14.7 20.1 14.9 19.9 15 19.8L15.4 17.1C15.5 16.7 15.8 16.5 16.2 16.5H17.6C20.2 16.5 21.7 15.1 22.1 12.7C22.2 11.7 22 10.9 21.5 10.3C20.8 10.1 20 10.2 18.9 10.2ZM19.3 12.9C19.1 14.3 18 14.3 17 14.3H16.4L16.8 12C16.8 11.8 17 11.7 17.2 11.7H17.5C18.2 11.7 18.8 11.7 19.1 12.1C19.3 12.3 19.3 12.5 19.3 12.9Z" fill="#298FC2"/>
  <path d="M25.9 14.3H24.2C24 14.3 23.8 14.4 23.8 14.6L23.7 15.1L23.6 14.9C23.2 14.3 22.2 14.1 21.3 14.1C19.3 14.1 17.6 15.6 17.3 17.7C17.1 18.7 17.3 19.7 17.8 20.4C18.3 21 19 21.3 19.9 21.3C21.5 21.3 22.4 20.3 22.4 20.3L22.3 20.8C22.3 21 22.5 21.2 22.7 21.2H24.3C24.7 21.2 25 21 25.1 20.6L26.2 14.7C26.1 14.5 26 14.3 25.9 14.3ZM23.1 17.8C22.9 18.8 22.1 19.5 21.1 19.5C20.6 19.5 20.2 19.3 19.9 19C19.7 18.7 19.6 18.3 19.7 17.8C19.8 16.8 20.7 16.1 21.6 16.1C22.1 16.1 22.5 16.3 22.8 16.6C23 16.9 23.2 17.3 23.1 17.8Z" fill="#298FC2"/>
  <path d="M41.9 14.3H40.2C40 14.3 39.8 14.4 39.8 14.6L39.7 15.1L39.6 14.9C39.2 14.3 38.2 14.1 37.3 14.1C35.3 14.1 33.6 15.6 33.3 17.7C33.1 18.7 33.3 19.7 33.8 20.4C34.3 21 35 21.3 35.9 21.3C37.5 21.3 38.4 20.3 38.4 20.3L38.3 20.8C38.3 21 38.5 21.2 38.7 21.2H40.3C40.7 21.2 41 21 41.1 20.6L42.2 14.7C42.1 14.5 42 14.3 41.9 14.3ZM39.1 17.8C38.9 18.8 38.1 19.5 37.1 19.5C36.6 19.5 36.2 19.3 35.9 19C35.7 18.7 35.6 18.3 35.7 17.8C35.8 16.8 36.7 16.1 37.6 16.1C38.1 16.1 38.5 16.3 38.8 16.6C39 16.9 39.2 17.3 39.1 17.8Z" fill="#28356A"/>
  <path d="M35.9 21.4C34.3 21.4 33.2 20.8 32.5 19.8C31.8 18.9 31.6 17.6 31.9 16.3C32.3 13.7 34.5 11.9 37 11.9C38.6 11.9 39.7 12.5 40.4 13.5C41.1 14.4 41.3 15.6 41 17C40.6 19.7 38.2 21.4 35.9 21.4ZM37 13C35.2 13 33.6 14.3 33.3 16.3C33.1 17.3 33.3 18.3 33.8 18.9C34.3 19.6 35.1 19.8 36 19.8C37.8 19.8 39.2 18.4 39.5 16.5C39.7 15.5 39.5 14.5 39 13.9C38.6 13.3 37.9 13 37 13Z" fill="#28356A"/>
  <path d="M19.9 21.4C18.3 21.4 17.2 20.8 16.5 19.8C15.8 18.9 15.6 17.6 15.9 16.3C16.3 13.7 18.5 11.9 21 11.9C22.6 11.9 23.7 12.5 24.4 13.5C25.1 14.4 25.3 15.6 25 17C24.6 19.7 22.2 21.4 19.9 21.4ZM21 13C19.2 13 17.6 14.3 17.3 16.3C17.1 17.3 17.3 18.3 17.8 18.9C18.3 19.6 19.1 19.8 20 19.8C21.8 19.8 23.2 18.4 23.5 16.5C23.7 15.5 23.5 14.5 23 13.9C22.5 13.3 21.9 13 21 13Z" fill="#298FC2"/>
</svg>
